<svg id="visual" viewBox="0 0 900 600" width="900" height="600" xmlns="http://www.w3.org/2000/svg" xmlns:xlink="http://www.w3.org/1999/xlink" version="1.1"><path d="M0 109L13.7 104C27.3 99 54.7 89 82 91C109.3 93 136.7 107 163.8 112C191 117 218 113 245.2 105C272.3 97 299.7 85 327 87C354.3 89 381.7 105 409 107C436.3 109 463.7 97 491 94C518.3 91 545.7 97 573 99C600.3 101 627.7 99 654.8 93C682 87 709 77 736.2 71C763.3 65 790.7 63 818 72C845.3 81 872.7 101 886.3 111L900 121L900 0L886.3 0C872.7 0 845.3 0 818 0C790.7 0 763.3 0 736.2 0C709 0 682 0 654.8 0C627.7 0 600.3 0 573 0C545.7 0 518.3 0 491 0C463.7 0 436.3 0 409 0C381.7 0 354.3 0 327 0C299.7 0 272.3 0 245.2 0C218 0 191 0 163.8 0C136.7 0 109.3 0 82 0C54.7 0 27.3 0 13.7 0L0 0Z" fill="#f9fdff"></path><path d="M0 175L13.7 171C27.3 167 54.7 159 82 160C109.3 161 136.7 171 163.8 170C191 169 218 157 245.2 150C272.3 143 299.7 141 327 149C354.3 157 381.7 175 409 179C436.3 183 463.7 173 491 168C518.3 163 545.7 163 573 158C600.3 153 627.7 143 654.8 133C682 123 709 113 736.2 107C763.3 101 790.7 99 818 109C845.3 119 872.7 141 886.3 152L900 163L900 119L886.3 109C872.7 99 845.3 79 818 70C790.7 61 763.3 63 736.2 69C709 75 682 85 654.8 91C627.7 97 600.3 99 573 97C545.7 95 518.3 89 491 92C463.7 95 436.3 107 409 105C381.7 103 354.3 87 327 85C299.7 83 272.3 95 245.2 103C218 111 191 115 163.8 110C136.7 105 109.3 91 82 89C54.7 87 27.3 97 13.7 102L0 107Z" fill="#f8fdff"></path><path d="M0 253L13.7 250C27.3 247 54.7 241 82 235C109.3 229 136.7 223 163.8 223C191 223 218 229 245.2 223C272.3 217 299.7 199 327 200C354.3 201 381.7 221 409 231C436.3 241 463.7 241 491 241C518.3 241 545.7 241 573 234C600.3 227 627.7 213 654.8 205C682 197 709 195 736.2 189C763.3 183 790.7 173 818 180C845.3 187 872.7 211 886.3 223L900 235L900 161L886.3 150C872.7 139 845.3 117 818 107C790.7 97 763.3 99 736.2 105C709 111 682 121 654.8 131C627.7 141 600.3 151 573 156C545.7 161 518.3 161 491 166C463.7 171 436.3 181 409 177C381.7 173 354.3 155 327 147C299.7 139 272.3 141 245.2 148C218 155 191 167 163.8 168C136.7 169 109.3 159 82 158C54.7 157 27.3 165 13.7 169L0 173Z" fill="#f7fcff"></path><path d="M0 439L13.7 434C27.3 429 54.7 419 82 409C109.3 399 136.7 389 163.8 376C191 363 218 347 245.2 339C272.3 331 299.7 331 327 337C354.3 343 381.7 355 409 353C436.3 351 463.7 335 491 341C518.3 347 545.7 375 573 372C600.3 369 627.7 335 654.8 330C682 325 709 349 736.2 355C763.3 361 790.7 349 818 345C845.3 341 872.7 345 886.3 347L900 349L900 233L886.3 221C872.7 209 845.3 185 818 178C790.7 171 763.3 181 736.2 187C709 193 682 195 654.8 203C627.7 211 600.3 225 573 232C545.7 239 518.3 239 491 239C463.7 239 436.3 239 409 229C381.7 219 354.3 199 327 198C299.7 197 272.3 215 245.2 221C218 227 191 221 163.8 221C136.7 221 109.3 227 82 233C54.7 239 27.3 245 13.7 248L0 251Z" fill="#f0faff"></path><path d="M0 481L13.7 477C27.3 473 54.7 465 82 464C109.3 463 136.7 469 163.8 458C191 447 218 419 245.2 405C272.3 391 299.7 391 327 397C354.3 403 381.7 415 409 418C436.3 421 463.7 415 491 419C518.3 423 545.7 437 573 432C600.3 427 627.7 403 654.8 405C682 407 709 435 736.2 446C763.3 457 790.7 451 818 440C845.3 429 872.7 413 886.3 405L900 397L900 347L886.3 345C872.7 343 845.3 339 818 343C790.7 347 763.3 359 736.2 353C709 347 682 323 654.8 328C627.7 333 600.3 367 573 370C545.7 373 518.3 345 491 339C463.7 333 436.3 349 409 351C381.7 353 354.3 341 327 335C299.7 329 272.3 329 245.2 337C218 345 191 361 163.8 374C136.7 387 109.3 397 82 407C54.7 417 27.3 427 13.7 432L0 437Z" fill="#e3f5ff"></path><path d="M0 601L13.7 601C27.3 601 54.7 601 82 601C109.3 601 136.7 601 163.8 601C191 601 218 601 245.2 601C272.3 601 299.7 601 327 601C354.3 601 381.7 601 409 601C436.3 601 463.7 601 491 601C518.3 601 545.7 601 573 601C600.3 601 627.7 601 654.8 601C682 601 709 601 736.2 601C763.3 601 790.7 601 818 601C845.3 601 872.7 601 886.3 601L900 601L900 395L886.3 403C872.7 411 845.3 427 818 438C790.7 449 763.3 455 736.2 444C709 433 682 405 654.8 403C627.7 401 600.3 425 573 430C545.7 435 518.3 421 491 417C463.7 413 436.3 419 409 416C381.7 413 354.3 401 327 395C299.7 389 272.3 389 245.2 403C218 417 191 445 163.8 456C136.7 467 109.3 461 82 462C54.7 463 27.3 471 13.7 475L0 479Z" fill="#d7f1ff"></path></svg>