<?xml version="1.0" encoding="UTF-8" standalone="no"?>
<svg
   xml:space="preserve"
   width="554"
   height="486"
   data-id="lg_oK3e1FCIrENIWIHgzp"
   data-version="1"
   viewBox="0 0 554 486"
   version="1.1"
   id="svg241"
   sodipodi:docname="wavedash-high-resolution-logo-transparent.svg"
   inkscape:version="1.2.2 (b0a8486541, 2022-12-01)"
   xmlns:inkscape="http://www.inkscape.org/namespaces/inkscape"
   xmlns:sodipodi="http://sodipodi.sourceforge.net/DTD/sodipodi-0.dtd"
   xmlns="http://www.w3.org/2000/svg"
   xmlns:svg="http://www.w3.org/2000/svg"><defs
     id="defs245" /><sodipodi:namedview
     id="namedview243"
     pagecolor="#ffffff"
     bordercolor="#666666"
     borderopacity="1.0"
     inkscape:showpageshadow="2"
     inkscape:pageopacity="0.0"
     inkscape:pagecheckerboard="0"
     inkscape:deskcolor="#d1d1d1"
     showgrid="false"
     inkscape:zoom="0.655"
     inkscape:cx="276.33588"
     inkscape:cy="242.74809"
     inkscape:window-width="1854"
     inkscape:window-height="1011"
     inkscape:window-x="1986"
     inkscape:window-y="32"
     inkscape:window-maximized="1"
     inkscape:current-layer="svg241" /><g
     data-padding="20"
     id="g239"
     transform="translate(-723)"><path
       fill="#006ce4"
       d="m 864.322,83.561 -65.546,-65.545 9.177,-9.176 65.545,65.545 z m -56.37,56.37 -9.176,9.176 -65.545,-65.546 9.177,-9.176 z m 327.726,-56.37 -9.176,-9.176 65.545,-65.545 9.177,9.176 z m 65.546,65.546 -9.177,-9.177 65.545,-65.545 9.177,9.176 z m 54.009,142.822 a 22.94,22.94 0 0 0 0,-32.444 L 1016.255,20.442 a 22.94,22.94 0 0 0 -32.445,0 L 744.767,259.419 a 22.94,22.94 0 0 0 0,32.445 l 44.44,44.44 h -51.388 v 9.831 h 196.636 v -9.832 H 807.69 l -53.616,-53.681 a 9.83,9.83 0 0 1 0,-13.896 L 993.052,29.683 a 9.83,9.83 0 0 1 13.896,0 l 239.043,239.043 a 9.83,9.83 0 0 1 0,13.896 l -53.747,53.681 h -61.154 v 9.832 h 131.09 v -9.832 h -51.387 z M 868.91,401.783 h 196.635 v 9.832 H 868.91 Z m -131.09,65.545 h 524.36 v 9.832 H 737.82 Z"
       id="path235" /><path
       fill="transparent"
       stroke="transparent"
       d="m 723,0 h 554 V 486 H 723 Z"
       id="path237" /></g></svg>
