<svg xmlns="http://www.w3.org/2000/svg" xml:space="preserve" width="2000" height="1500" data-id="lg_oK3e1FCIrENIWIHgzp" data-version="1" viewBox="0 0 2000 1500"><path fill="#fff" stroke="transparent" d="M0 0h2000v1500H0z"/><g data-padding="20"><path fill="#006ce4" d="M685.93 380.93 534.205 229.204l21.241-21.242 151.725 151.725ZM555.446 511.412l-21.241 21.241L382.48 380.93l21.241-21.241Zm758.624-130.484-21.241-21.241 151.725-151.725 21.241 21.242Zm151.725 151.725-21.241-21.241 151.725-151.725 21.241 21.241Zm125.021 330.609a53.104 53.104 0 0 0 0-75.104l-553.188-553.34a53.104 53.104 0 0 0-75.104 0l-553.34 553.188a53.104 53.104 0 0 0 0 75.104l102.869 102.87H393.1v22.758h455.174V965.98H554.84L430.73 841.718a22.76 22.76 0 0 1 0-32.166l553.188-553.34a22.76 22.76 0 0 1 32.166 0l553.34 553.34a22.76 22.76 0 0 1 0 32.166L1445.01 965.98h-141.56v22.759h303.45V965.98h-118.952Zm-894.266 254.29h455.175v22.76H696.55ZM393.1 1269.278h1213.8v22.759H393.1Z"/><path fill="transparent" stroke="transparent" stroke-width="2.315" d="M358.796 187.5h1282.408v1125H358.796z"/></g></svg>